<svg xmlns="http://www.w3.org/2000/svg" width="114" height="114" fill="none" viewBox="0 0 114 114"><circle cx="57" cy="57" r="57" fill="#E30613"/><path fill="#FFE600" fill-rule="evenodd" d="M48.531 21.632c-.52-.26-1.235-.456-2.275-.586-2.146-.196-4.226-.26-6.372-.326-.975-.065-1.625-.13-1.95-.39.975-1.824 2.08-3.583 3.25-5.276.846-1.303 2.276-3.517 1.821-5.21-.16-.6-.393-1.15-.624-1.696-.145-.345-.29-.687-.416-1.04-1.43-3.907-5.006-1.628-6.567.912-.715 1.172-1.365 2.345-1.885 3.647-.13.326-.13.652-.13.912.13 1.042 1.69-1.368 1.755-1.498.208-.287.416-.594.625-.901.312-.461.624-.923.936-1.313.13-.196.715-.26.52.065 0 .065-.13.456-.39 1.237-.585 1.759-1.17 3.452-2.016 5.08-.065.13-1.105 2.215-1.43 1.498-.845-1.823-1.495-3.126-1.886-3.908-.65-1.367-1.04-2.67-1.365-4.103-.565-.566-1.131-.14-1.697.286-.214.162-.429.323-.643.43-.26.131-.52.196-.715.131-1.236 2.02-1.106 4.299-.846 6.578.055.55.156 1.1.265 1.689l.06.33c-3.185-.586-7.021-.456-9.752 1.628-1.17.912-3.055 4.82-1.82 6.122.53.178 1.758-.718 2.32-1.128l.15-.11c1.366-.846 3.251-.91 4.877-.846.78 0 1.82.065 2.535.456-1.625 3.778-3.25 7.685-3.38 11.788-.066.782.324 1.628.715 2.345.715 1.628 1.885 1.758 3.51.456.846-.651 1.56-1.498 2.146-2.41 1.04-1.563 1.755-3.321 2.275-5.08.39.847 1.43 2.605 2.536 1.759.195-.13.455-.326.65-.521.707.202 1.492-.185 2.173-.52.196-.097.383-.19.557-.262.39-.195.586-.456.52-.912-.033-.186-.164-.572-.325-1.047-.459-1.349-1.162-3.418-.585-3.707 1.864.174 3.699.174 5.524.174.913 0 1.823 0 2.733.021.52 0 1.17-.26 2.016-.781l.123-.085c1.107-.759 3.478-2.384 2.477-3.888zm-20.674 12.31c-.325.65-.715 1.302-1.105 1.953-.13.195-.586.326-.456 0 0-.023.017-.097.044-.218.05-.216.133-.583.216-1.085.325-1.628.716-3.19 1.3-4.754l.196-.586c.195-.456 1.43-2.866 1.365-1.042-.065 2.019-.715 3.973-1.56 5.731zM67.12 13.372v.002l.003.004c.205.325.422.668.652 1.025.65 2.735-.91 5.47-2.99 7.36-.845.91-2.536 2.344-3.901 1.953-.177 0-.353-.214-.627-.544l-.048-.06-.04-.047c-.26-.456-.585-.652-.78-.717-.065-.065-.26 0-.65.13-.846.261-1.69.521-2.471.912-.181.046-.3.123-.398.187-.043.028-.083.054-.122.074l-.065.065c-.06 0-.124-.006-.195-.013-.164-.014-.359-.032-.585.013-.303.04-.607.1-.911.16-1.2.24-2.381.475-3.315-.616-.715-.782-1.3-1.889-1.56-2.93a23.697 23.697 0 00-.09-.57c-.024-.147-.04-.245-.04-.277-.066-.066.064-.391.325-.977.78-1.694 2.145-3.061 3.705-4.038.78-.521 1.69-.847 2.73-1.042.26-.066.586-.13.846-.13.808.124 1.497.903 2.01 1.483l.07.08c.12.134.242.281.368.434.427.515.902 1.088 1.453 1.39 1.105-.717 2.275-1.564 2.535-2.997.13-.586-.065-.977-.585-1.172-1.82-.586-3.77-.847-5.656-.39l-.055.01-.085.017c-.293.057-.62.12-.9.233a14.77 14.77 0 00-2.926 1.367c-1.235-.195-2.99-.651-2.925-2.28.065-.325.065-.585 0-.78.13-.652.65-1.173 1.495-1.629.845-.456 1.82-.781 2.926-1.042.26-.033.503-.081.747-.13.244-.05.488-.098.748-.13 2.34-.391 4.746-.456 6.826.586 1.496.716 2.406 1.954 3.316 3.256.352.484.733 1.088 1.164 1.77zm-13.063 8.195c.26.065 1.04.065 1.82 0 1.496-.13 3.187-.586 2.666-1.694-.39-.781-1.105-1.367-2.015-1.237-.195 0-.39.065-.585.13-1.17.391-2.21 1.368-2.73 2.475.194.13.454.26.844.326zM50.872 62.467c-.13-1.302.065-2.149.91-3.256 1.015-1.445 2.6-1.703 4.215-1.965.35-.057.703-.115 1.051-.184-.31-.794-2.026-1.167-3.59-1.507-1.387-.302-2.655-.578-2.716-1.099-.183-.396.361-.835.958-1.317.678-.547 1.425-1.15 1.252-1.809-.815-.326-1.696.216-2.372.632-.67.412-1.139.7-1.139-.11 1.236-4.234-.39-5.667-.975-.522 0 0-.195.652-.39.912-.195.326-.52.39-.845.326-.996-.294-2.256-2.227-2.876-3.178-.068-.104-.128-.197-.18-.274-.065-.065-.13-.13-.13-.195-.39-.066-.13.781.13 1.498.195.52.39.977.39.977.26.781.39 2.605-.39 2.995-.26.196-.715.13-1.365-.325-.236-.237-.477-.524-.727-.822-.646-.77-1.355-1.614-2.199-1.849-.308.825.088 1.776.494 2.749.364.872.734 1.76.612 2.592-1.366 4.364-6.697 5.406-9.688 3.843.326 4.038 1.56 6.968 3.901 10.485.26.196 1.756 2.28 1.756 2.605.13.066 1.95 1.89 1.95 2.02l.13.021c1.535.257 3.366.563 5.136.5 1.106-.066 2.146-.261 3.056-.717 1.105-.521 1.95-1.433 2.34-2.93l.277-.992c.983-3.517 1.441-5.158 1.024-9.104zm-3.641-7.099c-1.365 0-1.365 2.215 0 2.215s1.365-2.215 0-2.215z" clip-rule="evenodd"/><path fill="#FFE600" fill-rule="evenodd" d="M84.42 15.38c2.34 1.953 4.355 4.103 5.85 6.773.029.199.074.441.124.713.296 1.604.782 4.239-.774 5.018-2.015 1.107-3.706.717-5.396 0a57.25 57.25 0 00-2.73-1.172c-1.496 2.8-2.211 5.536-2.731 8.727a24.962 24.962 0 015.461 7.23c3.77 7.554 3.38 16.542 0 24.357-4.68 10.812-14.953 19.539-27.566 19.539-16.709 0-30.297-13.612-30.297-30.35 0-16.673 13.458-31.718 31.857-29.568 6.372.716 11.963 2.735 16.449 5.6-.294-2.948.211-6.058.695-9.038v-.001l.15-.925c.112-.75-.012-1.37-.138-1.997-.093-.463-.187-.93-.187-1.455 0-.507.424-.263.787-.055.15.087.288.167.383.186.681.17 1.263-2.19 1.487-3.096.032-.132.057-.233.074-.291-.584-1.42-1.354-.644-2.055.06-.392.396-.763.768-1.066.722-1.43-.261-2.406-.977-3.056-2.085 1.82-2.084 5.007-2.084 7.477-1.693.31-.227.593-.77.887-1.333.634-1.212 1.319-2.523 2.429-1.012.845 1.173.91 2.996.91 4.364l.975.781zm-2.016 5.796c.065.716 1.04.782 1.95.521 1.105-.39 2.146-1.172 1.886-2.019-.19-.823-1.054-1.4-1.819-1.91l-.067-.044a4.863 4.863 0 01-.567-.354l-.038-.026-.04-.028a8.435 8.435 0 00-.07-.048c-.646.561-.807 1.607-.955 2.572-.076.492-.149.962-.28 1.336zm2.439 33.495c.016.406.031.803.031 1.153.195.912.13 2.02-.065 2.8-.102.564-.134 1.138-.167 1.725-.05.907-.102 1.847-.418 2.835-.127 0-.27.621-.427 1.31-.166.722-.349 1.517-.548 1.75-.406 2.076-1.675 3.846-2.92 5.582-.747 1.042-1.485 2.07-2.021 3.146-.359.38-.706.814-1.059 1.257-.798 1-1.63 2.044-2.712 2.585-2.08 1.499-4.356 2.866-6.827 3.778-1.3.456-2.665.847-4.095 1.042-2.34.521-4.421.782-6.827.39-3.056 0-6.761-.716-9.687-2.018-.167-.084-.33-.163-.488-.24-.458-.224-.88-.43-1.267-.672-.195 0-.716-.26-1.366-.586-1.43-.716-3.38-1.954-3.38-2.28-1.3-1.367 1.755 0 2.21.456.096.097.443.265.828.452.134.065.273.132.407.2h.002c.52.195 1.039.39 1.234.456 0 .26.715.65 1.82 1.041 2.535.977 7.022 2.02 8.907 2.02.17 0 .54.037.903.074.465.047.917.092.917.056.325.325 2.926-.065 3.511-.26.114-.014.233-.028.354-.041 1.055-.12 2.347-.267 3.222-.676.26 0 1.43-.39 2.795-.912 2.341-.847 5.267-2.15 5.592-2.93 2.015-1.043 3.836-3.648 5.07-5.537.506-.472.854-1.119 1.199-1.76.32-.596.639-1.187 1.077-1.626.164-.314.314-.58.449-.817.451-.798.722-1.276.722-2.18-.078.104.009-.1.13-.385.182-.432.442-1.047.325-1.047 1.105-2.15 1.365-5.927 1.3-9.378-2.796-.847-7.542-.326-8.452 3.126 0 .184.152.662.349 1.28.636 2 1.737 5.466-.349 5.167-1.26-.194-2.05-1.075-2.828-1.942a14.237 14.237 0 00-.813-.858c-.137.686.165 1.395.473 2.118.422.992.855 2.01.178 3.027-1.119 1.618-3.365-1.403-4.243-2.583l-.058-.079-.056-.073c-.04 0-.055-.025-.076-.06a.364.364 0 00-.053-.07c-.045.152-.095.341-.151.556-.352 1.34-.957 3.647-2.19 3.872-1.426.238-1.386-2.569-1.368-3.8l.003-.303c-.401.287-.903.473-1.373.646l-.002.001a93.626 93.626 0 00-.186.07c-2.405.455-2.795-1.499-1.43-3.192.141-.116.274-.229.404-.339h.002c.522-.443.986-.837 1.652-1.148a.048.048 0 00.023-.01l-.023.01c-.447.107-6.214-1.54-6.024-2.877-.342.11-.767.202-1.224.302-1.717.372-3.885.843-3.782 2.694.195 4.69.065 13.026-4.811 15.37-.715.326-1.495.522-2.405.587h-.65c-1.821 0-3.381-.456-5.072-.977.076.176.249.304.432.44.291.214.608.449.608.928-.28.676-.757.328-1.133.053-.058-.043-.114-.084-.167-.119 0-.065-1.69-1.888-1.95-2.149-1.36-1.42-2.474-3.235-3.513-4.929-.152-.249-.303-.495-.453-.737-.573-.861-.944-1.773-1.336-2.735l-.16-.391c-.164-.634-.378-1.2-.586-1.747-.368-.971-.714-1.883-.714-3.008-.195-1.432-.195-2.865-.195-4.298-.39-1.889-.13-5.601.455-7.36.12 0 .24-.552.379-1.193.162-.75.351-1.622.596-1.867.226-1.086.734-1.952 1.242-2.816.223-.38.445-.76.644-1.157.325-.326 2.795-4.103 2.795-4.234 1.106-1.758 2.731-3.386 4.486-4.559.447-.447 1.021-.768 1.595-1.088.345-.193.69-.385 1.006-.605.195-.26.52-.456.975-.716.78-.391 1.886-.847 3.056-1.238 2.276-.781 4.876-1.367 6.371-1.367 0-.261 1.496-.261 1.69-.261.52 0 5.397.26 5.592.456 2.34 0 4.746.912 6.956 1.889.716.325 1.366.65 2.016.977.36.383 1.062.688 1.807 1.01 1.278.553 2.679 1.16 2.679 2.311-.881 0-1.825-.582-2.76-1.158-.721-.445-1.437-.886-2.116-1.056 0-.26-.65-.587-1.626-.977-2.535-.977-7.281-2.084-9.166-2.084-.62 0-1.192-.043-1.739-.083-1.116-.083-2.133-.158-3.268.148v.065c-.013 0-.033-.003-.058-.006-.1-.012-.267-.033-.267.071-2.015.326-4.16.716-6.111 1.498l-.22.085c-.271.105-.566.218-.82.37-.169 0-1.014.389-1.702.704l-.004.002-.31.142c-.39.195-.65.325-.65.39-.13 0-.585.326-.715.456-2.015 1.107-3.836 2.736-5.071 4.624-1.138 1.101-1.992 2.534-2.847 3.97-.562.942-1.125 1.886-1.77 2.739 0 .215-.098.47-.186.698-.072.187-.138.357-.138.474.346 0 .029.81-.183 1.35-.106.27-.186.474-.142.474-1.236 2.54-1.366 7.424-1.17 11.267 2.86.912 7.671.456 8.646-3.061 0-.125-.123-.506-.291-1.025-.623-1.92-1.858-5.73.291-5.423 1.26.194 2.05 1.075 2.828 1.943.267.297.531.592.813.858.139-.694-.16-1.423-.462-2.163-.407-.996-.822-2.01-.188-2.983.325-.52.78-.586 1.3-.39 1.162.517 2.516 2.382 3.044 3.11l.012.016.13.195c.045-.152.095-.342.15-.556.352-1.341.957-3.648 2.19-3.873 1.428-.298 1.386 2.568 1.369 3.755l-.003.283c.4-.287.903-.472 1.372-.646h.002l.186-.07c2.406-.456 2.796 1.498 1.43 3.191a32.2 32.2 0 00-.405.34c-.524.444-.989.838-1.658 1.15a.056.056 0 00-.017.008l.017-.008c.44-.132 6.286 1.529 6.094 2.874.292-.09.666-.168 1.077-.255 1.696-.36 4.034-.854 3.93-2.741-.26-4.69-.13-12.96 4.68-15.37.716-.326 1.496-.521 2.406-.587.65-.065 6.501.587 6.306 1.303a99.11 99.11 0 01-.69-.112h-.004v-.001c-2.433-.401-5.71-.942-8.017.243-1.106.521-1.95 1.498-2.341 2.931l-.276.991c-.983 3.517-1.442 5.158-1.024 9.104.13 1.302-.065 2.15-.91 3.256-1.066 1.46-2.76 1.71-4.457 1.96-.27.04-.541.08-.81.125.31.793 2.026 1.166 3.59 1.507 1.388.301 2.656.577 2.717 1.098.182.396-.362.835-.959 1.317-.678.548-1.425 1.15-1.252 1.809.816.327 1.697-.216 2.372-.632.671-.412 1.139-.7 1.139.11-1.235 4.234.39 5.667.975.522 0 0 .26-.651.39-.912.195-.326.52-.456.846-.326.95.3 2.091 2.026 2.746 3.014.196.297.349.528.44.634.65.13-.52-2.475-.52-2.475-.326-1.108-.391-4.234 1.82-2.67.235.236.476.523.727.82.646.77 1.354 1.615 2.198 1.85.348-.8-.066-1.787-.487-2.791-.367-.874-.74-1.761-.618-2.55 1.3-4.298 6.566-5.405 9.557-3.908-.03-.651-.113-1.384-.195-2.105-.099-.865-.195-1.714-.195-2.389-.26-.195-.91-2.67-.91-3.06-.13-.196-1.236-2.41-1.236-2.54-.91-1.368-1.885-2.801-2.86-4.234 0 0-1.04-1.302-1.236-1.498-.064 0-3.25-2.8-1.95-3.191.78.244 1.413.963 1.983 1.61.19.216.373.425.553.604.447.411.83.972 1.199 1.511.273.4.539.789.816 1.094.39.75.894 1.433 1.398 2.117.504.684 1.008 1.368 1.398 2.117.332 1.102.704 2.064 1.056 2.976.751 1.946 1.414 3.662 1.414 6.011 0 .4.017.833.034 1.257zM67.84 59.797c1.365 0 1.365-2.214 0-2.214-1.43 0-1.43 2.214 0 2.214zM56.593 32.77c-.195.065-.325.26-.39.456-.065.195-.065.52.13.586.041.041.082.095.126.152.093.123.196.26.33.304a.23.23 0 01.097.032.23.23 0 00.097.033c0 .065.065.13.13.13a.672.672 0 00.23.142c.067.03.14.062.225.119.178.119.465.02.662-.047l.053-.019c.065-.032.13-.08.195-.13a1.34 1.34 0 01.195-.13l.066-.065c.095 0 .12-.035.153-.08a.407.407 0 01.042-.05l.065-.066c.13-.13.195-.195.26-.325.065-.065.13-.13.13-.196.045-.136.122-.272.186-.386.028-.05.054-.095.074-.135 0 0 .065-.13.065-.195 0-.041.006-.089.013-.14.015-.107.031-.227-.013-.316-.13-.325-.39-.586-.78-.651-.195 0-.65 0-.846.13a.738.738 0 00-.52.195 2.4 2.4 0 00-.715.326c-.13.065-.195.196-.26.326zm-7.087 1.172c-.26.326-.325.456-.39.586h-.065v.196c0 .02-.006.045-.012.073-.015.065-.033.142.012.187a.262.262 0 000 .231v.095a.34.34 0 01.065.098c.017.032.033.065.065.097.042.041.083.09.126.14.093.108.196.227.33.316.26.196.455.326.65.456s.65.13.78-.065h.13c.26-.065.455-.195.65-.39h-.065c.195-.066.39-.261.39-.457.13-.195.26-.456.325-.716a1.59 1.59 0 000-.782c-.102-.411-.408-.538-.724-.67-.084-.035-.17-.07-.251-.111h-.195c-.195 0-.455 0-.715.195-.455.065-.78.26-1.105.521zM42.94 40.91c0-.065 0-.13-.065-.195l.13-.391c0-.077.022-.13.04-.175.014-.032.025-.059.025-.086l.195-.39c.13-.261.195-.391.325-.587l.325-.325v-.066c.065-.065.138-.13.21-.195.144-.13.289-.26.375-.39.13-.066.26-.13.39-.13.157-.053.313.062.469.176.039.029.078.058.117.084v.065c.04 0 .055.025.076.059.014.021.029.046.054.071 0 .027.01.065.024.11.018.063.04.14.04.216v.325h.066c-.103.052-.084.185-.071.271a.434.434 0 01.006.055c-.065.065-.065.195-.065.26 0 .096-.035.191-.08.312l-.05.144-.13.196v.065c-.195.26-.325.39-.846.651h-.26c-.065.033-.113.049-.162.065a1.117 1.117 0 00-.163.065c-.028-.028-.044-.02-.059-.011-.018.01-.034.02-.07-.054h-.26a3.372 3.372 0 01-.405-.13c-.058-.022-.116-.044-.18-.065zm-5.591 6.773c.13-.065.26-.13.325-.195v.065h.195c.13-.065.325-.13.52-.195 0 0 .195-.13.26-.196.065-.13.195-.325.325-.456.216-.216.297-.431.393-.684l.062-.162v-.26c-.065-.327-.13-.652-.39-.848-.195-.325-.715-.39-1.04-.39-.045 0-.154 0-.26.022v-.022a.23.23 0 00-.098.032c-.032.017-.065.033-.097.033-.325.065-.52.13-.78.26-.22.056-.3.11-.439.205a7.36 7.36 0 01-.081.056c-.26.065-.325.13-.456.26-.13 0-.195.065-.26.13h.196v2.475c.13 0 .26.066.325.13.065.066.325.131.39.066.065-.033.13-.033.195-.033s.13 0 .195-.032c.13 0 .26-.065.39-.196.065 0 .13-.065.13-.065zm-2.016-2.15l.13-.064.065-.065v2.41c-.065 0-.13-.066-.195-.13v-.066c-.021-.022-.043-.036-.065-.05a.325.325 0 01-.13-.145l-.195-.196c-.021-.043-.036-.087-.05-.13a.593.593 0 00-.145-.26c-.065-.066-.065-.391 0-.587a.976.976 0 00.05-.13c.03-.087.059-.174.145-.26.087-.13.174-.203.26-.275.044-.037.087-.073.13-.116v.065zm17.23 31.393c.13-.782.52-1.238.78-1.368l.324-.456c.13-.065.195-.065.325-.065h.326l.032.016.032.016h.001c.246.121.52.255.52.554.065.065.065.13.065.196h-.065c.065 0 .065.065.065.065-.055.054-.052.176-.05.3.003.174.006.351-.145.351a.463.463 0 01-.025.11.783.783 0 00-.04.216v.13c-.022.043-.044.08-.065.116-.044.072-.087.144-.13.275 0 .065 0 .13-.065.195h-.13v.13l-.195.196h-.52c-.196-.065-.39-.13-.586-.13 0-.066-.065-.13-.13-.13 0-.066-.065-.066-.13-.066-.032-.065-.048-.114-.065-.163-.016-.049-.032-.097-.065-.163 0-.08.006-.142.011-.19.01-.104.014-.135-.076-.135zm6.306-7.555c-.066.13-.13.26-.13.456-.087.087-.116.174-.145.26a.966.966 0 01-.05.13v.261c0 .196.195.456.325.586.13.13.26.196.39.26.048.017.097.037.146.058.146.06.292.122.439.073.097-.02.194-.021.288-.023.22-.005.42-.01.557-.237.13-.196.195-.326.26-.521.032-.066.032-.115.032-.163 0-.05 0-.098.033-.163a.287.287 0 01.038-.032l.015-.01.018-.011c.034-.022.06-.037.06-.077.13-.13.13-.26.13-.456.064-.196.13-.391.064-.587.06-.298.01-.541-.048-.83l-.004-.016-.013-.065c-.06-.24-.34-.424-.536-.554a7.182 7.182 0 01-.049-.032s-.195-.066-.26-.066c-.325 0-.65.196-.78.456 0 .066-.065.13-.065.13-.195.13-.325.326-.455.522-.028.082-.078.153-.128.222-.067.095-.132.186-.132.299v.13zm8.776 2.019c.066-.13.196-.195.326-.26.195-.13.78-.196.975-.066l.075.056c.254.188.58.43.64.726.065.26.065.52.065.846 0 .342-.1.633-.21.962-.017.047-.034.096-.05.146-.065.195-.195.456-.39.586-.065.13-.195.195-.325.26-.065.13-.455.326-.65.326h-.39v-.065h-.195l-.014-.005a2.924 2.924 0 01-.1-.035h-.001a1.12 1.12 0 00-.406-.09h-.065v-2.345c.13-.26.26-.521.455-.651l.13-.13a.9.9 0 01.195-.261h-.064zm-1.17 2.214v-.13c0-.108.04-.195.075-.274.029-.065.055-.123.055-.182 0-.195.13-.39.26-.52v2.344c-.13-.065-.325-.196-.325-.326 0-.135-.022-.27-.044-.4-.03-.184-.059-.359-.02-.512zm6.957-2.67c0 .13-.065.326-.13.521 0 0 0 .065-.065.195.036.074.052.147.07.231.015.067.031.14.06.225a.342.342 0 01.065.098.34.34 0 00.065.098l.119.038c.174.054.374.117.53.222.13 0 .326 0 .456.065.065-.032.114-.065.163-.097.048-.033.097-.066.162-.098v-.065c.116-.155.186-.287.251-.41.044-.083.087-.162.14-.241 0-.066 0-.066-.066-.066.065-.13.13-.26.13-.39l.04-.154v-.001c.05-.187.09-.342.09-.497h.065c0-.13 0-.26-.065-.325-.065-.26-.195-.456-.39-.652a.59.59 0 00-.26-.144c-.043-.015-.087-.03-.13-.05-.13 0-.195 0-.325.064l-.195.13c-.065.066-.13.13-.26.196-.13.326-.325.651-.52.977v.13zM56.463 40.975h.195l.325.195c.098.066.195.147.293.228.097.082.195.163.292.228l.195.196c.065.065.065.13.065.13l.195.39c.065 0 .065.066.065.13l.195.587c0 .13 0 .26-.065.39v.066h-.065c-.195.326-.585.456-1.235.26-.04 0-.055-.024-.077-.059a.367.367 0 00-.053-.07l-.195-.066-.195-.195c-.034-.051-.08-.102-.134-.16-.152-.163-.355-.383-.451-.817 0-.033.016-.065.032-.098.017-.032.033-.065.033-.098l.325-.325s-.065 0-.195-.065c.043-.044.029-.087.014-.13-.007-.022-.014-.044-.014-.066h-.065c.065-.065.065-.13.065-.195a.498.498 0 00.13-.326c.065.065.26-.065.325-.13zm2.536 39.533v-.326c.066-.115.136-.248.207-.382.21-.395.427-.807.573-.855.08-.161.11-.173.153-.19a.263.263 0 00.107-.07v-.131c.065-.065.13-.114.195-.163a1.72 1.72 0 00.195-.163.48.48 0 00.162-.032c.05-.016.098-.033.163-.033.13-.065.195-.065.26-.065.195 0 .39.065.585.13l.39.391c.325.326.26 1.107.195 1.498 0 .065 0 .13-.065.13a.429.429 0 01-.079.233 1.034 1.034 0 00-.128.306 3.306 3.306 0 01-.053.178.59.59 0 01-.26.145c-.043.014-.086.028-.13.05a.417.417 0 00-.135.032c-.079.028-.148.052-.19-.032-.13 0-.975-.065-.975-.065-.065 0-.065 0-.13.065h.065c-.065 0-.065 0-.13.065a1.835 1.835 0 01-.053-.056c-.085-.093-.128-.14-.402-.14l-.065-.064c-.065-.065-.13-.13-.195-.13v-.066l-.13-.13c-.04 0-.056-.025-.077-.06a.364.364 0 00-.053-.07zM99.043 71.649c.348.264.722.55 1.11.848 1.495 2.41 1.3 5.406.78 7.88-.26.912-.52 1.76-.91 2.476s-.78 1.107-1.236 1.237c-.065.065-.325 0-.715-.26-.39-.196-.65-.326-.845-.261l-.455.456c-.52.586-1.04 1.237-1.496 1.888l-.069.115-.049.08c-.127.21-.207.34-.207.392l-.061.029-.036.016a2.333 2.333 0 00-.488.28c-.065.033-.113.082-.162.13-.049.05-.098.098-.163.13-.108.08-.216.163-.323.245-.858.653-1.692 1.29-2.732.537-.91-.586-1.626-1.433-2.146-2.344-.26-.391-.39-.651-.39-.782-.065-.065-.13-.39-.065-1.042.065-1.758.715-3.517 1.56-5.015.52-.912 1.236-1.693 2.21-2.344.521-.13 1.301.195 1.821.52l.195.13c.172.097.35.215.532.336.436.29.895.596 1.354.642.585-1.238 1.04-2.475.78-3.908-.13-.586-.455-.847-.845-.781-.225.037-.45.096-.662.152-.156.041-.306.08-.444.108-.317.053-.549.15-.8.254l-.175.072c-1.95.846-3.38 2.54-4.42 4.298-.846.196-1.886.26-2.471-.456-.239-.279-.332-.582-.427-.895-.06-.198-.123-.4-.223-.603-.13-.65.13-1.302.585-2.019 1.04-1.498 2.535-2.67 4.03-3.647.91-.586 1.821-1.107 2.861-1.237h.78c1.236.065 2.34.781 3.316 1.498.313.244.683.525 1.088.834l.006.005.005.004.002.001zM93.911 84.74c.39-.26.715-.52.975-.781.326-.326.976-.977.846-1.563a.74.74 0 00-.195-.521c-.456-.456-1.04-.717-1.626-.456a.492.492 0 00-.26.13c-1.04.782-1.56 2.345-1.625 3.647.585.195 1.3-.065 1.885-.456z" clip-rule="evenodd"/><path fill="#FFE600" d="M82.144 88.714c.455 2.475.65 5.08.585 7.62 0 .195.195.195.52 0 .61-.329 1.186-.692 1.777-1.064.228-.144.458-.289.693-.434.39-.26.716-.326.846-.26.975.65 1.495 1.563 1.43 2.67 0 1.954-.13 4.038-.65 5.992-.26.911-.65 1.563-1.69 1.237-.716-.26-1.626-.716-1.69-1.563-.066-.716-.066-1.433-.066-2.149 0-.651-.39-1.433-1.105-.847-.13.13-.325.261-.52.391-.77.653-1.919.062-2.707-.344a24.65 24.65 0 00-.128-.066l-.09-.046a5.098 5.098 0 01-1.171-.716c-.579-.446-.548-.892-.513-1.401.016-.234.034-.482-.007-.749-.065-.26-.13-.325-.39-.13-.39.434-.723.926-1.055 1.418-.166.246-.332.493-.506.731-.455.652-.715.652-1.43.521l-.975-.195c-.28-.252-.595-.516-.93-.797a37.155 37.155 0 01-1.41-1.222c-.911-.782-1.886-2.084-2.861-3.778-.126-.756.113-1.635.306-2.34l.019-.07c.26-.911.65-1.888 1.105-2.8l.076-.144c.645-1.229 2.267-4.318 3.89-3.568l.404.184.004.002c.739.333 1.525.688 2.127 1.182.163.98-.355 2.096-.795 3.044-.087.187-.17.367-.245.538l-.042.093c-.585 1.302-1.438 3.197-.803 4.596.195.39.715.13.91-.13 1.43-.652 2.73-1.563 2.99-3.192.13-.586.196-1.237.196-1.888 0-1.042.455-3.322 1.95-2.475.78.325 1.82 1.237 1.95 2.149zM62.704 103.107c.195-2.214.195-4.559-.065-6.773-.065-.847-1.105-1.758-1.625-2.019-1.365-.781-2.08.912-2.21 2.02-.066.585-.13 1.106-.326 1.627-.52 1.498-1.885 2.15-3.315 2.54-.195.196-.78.326-.91 0-.503-1.259.513-2.883 1.168-3.931l.067-.107c.1-.174.21-.355.325-.541.484-.79 1.028-1.677.975-2.52-.78-.52-1.625-1.042-2.47-1.433-.26-.13-.456-.195-.586-.195-1.56.195-2.925 1.889-3.705 3.061-.846 1.238-1.82 2.866-1.82 4.429.974 1.628 1.82 2.865 2.665 3.647.845.782 1.56 1.433 2.21 2.019.163.033.325.081.488.13.162.049.325.098.487.131.65.195.91.195 1.496-.326.195-.195.383-.398.57-.601.376-.405.752-.81 1.185-1.158.48-.374.348.655.285 1.145a2.651 2.651 0 00-.025.223c.065.847 2.21 1.759 2.86 2.019.123.035.235.07.34.102.285.089.51.159.701.159.242 0 .511-.172.78-.344.454-.289.91-.579 1.236-.047.13.13.13.325.13.651 0 .285-.016.586-.032.895-.016.325-.033.66-.033.994-.065 1.042 1.885 2.019 2.73 1.498.195-.13.39-.456.585-.912.65-1.628.91-3.452 1.106-5.21.065-.652 0-1.173-.326-1.563l-.057-.069c-.299-.36-.547-.659-.853-.843-.195-.065-.455 0-.91.195-.243.112-.485.23-.73.348-.606.294-1.222.592-1.87.825-.39.13-.586.13-.52-.066zM42.55 93.143c.065 2.41 0 4.95-.78 7.294-.26.782-.65 1.368-1.105 1.693-.655-.054-1.356-.384-1.987-.681-.12-.057-.239-.113-.354-.165-.39-.196-.78-.456-1.04-.717-.495-.406-.43-.718-.342-1.131.039-.184.082-.387.082-.627 0-.524-.715.047-1.062.325-.085.068-.148.118-.174.13-.324.261-.65.522-1.04.782-.325.261-.585.391-.78.391-.13 0-.39-.065-.715-.195l-.975-.391-.185-.169-.07-.063c-1.415-1.292-2.856-2.606-3.776-4.327-.65-1.172-.39-2.214.195-3.322.39-.716.91-1.367 1.495-2.019.975-1.042 2.926-2.865 4.421-1.953.845.52 1.626 1.107 2.406 1.693 0 .39-.13.781-.455 1.237-.273.382-.568.764-.867 1.15-.414.537-.836 1.083-1.214 1.65-.39.587-.65 1.434-.39 2.085.13.39.715.26.91.13 1.366-.195 2.86-.52 3.446-1.954.195-.456.325-.911.39-1.432.065-.521.325-1.042.78-1.564.39-.455 1.105-.325 1.56 0 .586.391 1.04.847 1.43 1.433.131.26.196.521.196.717zM31.917 78.67c.017-.163.036-.335.036-.507.05-.718-.543-1.597-.988-2.257-.12-.178-.23-.34-.313-.478-.21-.263-.42-.654-.699-1.172l-.001-.003-.21-.388c-.39-.717-.845-1.368-1.365-2.084-.366-.434-.596-1.158-.83-1.893-.221-.7-.447-1.408-.796-1.885a107.17 107.17 0 00-.455-.616v-.001c-.559-.752-1.1-1.48-1.56-2.248-.264-.41-.502-.801-.723-1.165-.377-.62-.705-1.16-1.032-1.57-.586-.652-.846-.913-.976-.782-.41.41-.397 1.611-.391 2.275l.001.2c-.065.065-.162.179-.308.35-.147.17-.342.399-.602.692l-.222.25c-.464.522-.983 1.106-1.598 1.834-.298.358-.719.948-1.162 1.57-.525.737-1.081 1.518-1.504 2.012-.63.75-1.259 1.487-1.882 2.217l-.001.001-.001.001c-.728.852-1.447 1.694-2.147 2.535-.278.33-.559.652-.838.971-1.154 1.325-2.277 2.613-3.063 4.24-.325.585-.455 1.172-.39 1.693 0 0 .065.13.26.26.65.456 1.82.782 2.406.065.52-.586 1.3-1.172 2.34-1.758 3.836-2.15 7.412-4.82 10.078-8.271.223.348.438.697.65 1.042.342.557.679 1.105 1.04 1.628-1.398 1.726-2.844 3.386-4.29 5.047h-.001c-1.447 1.661-2.893 3.322-4.29 5.048-.846 1.042-1.626 2.149-2.081 3.452.562.675 1.172.28 1.747-.092.09-.058.18-.116.268-.169.325-.13.845-.456 1.495-.912 2.991-1.954 5.917-4.103 8.582-6.513l.12-.105c.47-.41.87-.761 1.05-1.002.586-.781 1.691-1.042 2.601-.651.65.326 1.495.065 2.016-.456 0-.123.014-.26.03-.406z"/></svg>